<?xml version="1.0" encoding="utf-8"?>
<!-- Generator: Adobe Illustrator 24.0.2, SVG Export Plug-In . SVG Version: 6.00 Build 0)  -->
<svg version="1.1" id="Layer_1" xmlns="http://www.w3.org/2000/svg" xmlns:xlink="http://www.w3.org/1999/xlink" x="0px" y="0px"
	 width="85px" height="50px" viewBox="0 0 123.9 72.9" style="enable-background:new 0 0 123.9 72.9;" xml:space="preserve">
<style type="text/css">
	.st0{fill:#FFFFFF;}
</style>
<g>
	<path class="st0" d="M111.7,12.2c-5.5-5.5-12.8-8.6-20.6-8.6c-9,0-17.4,4.1-23.1,11.3c-0.1,0.1-0.2,0.2-0.2,0.3
		c3.3,5.2,5.1,11.2,5.1,17.5c0,8.8-3.4,17-9.6,23.2c-0.1,0.1-0.2,0.2-0.3,0.3c1.3,1,2.7,1.9,4.2,2.6c0,0,0-0.1,0-0.1
		c1.6-2.5,4.4-4.2,7.7-4.2c4.4,0,8.1,3.1,8.9,7.3l7.4,0c7.9,0,15.2-3.2,20.6-8.6c5.5-5.5,8.5-12.8,8.5-20.6
		C120.3,25,117.3,17.7,111.7,12.2z M80.2,25.5c0-2,1.6-3.6,3.6-3.6s3.6,1.6,3.6,3.6s-1.6,3.6-3.6,3.6S80.2,27.5,80.2,25.5z M108,39
		c-2.3,4.9-7.4,8.4-13.2,8.4S84,43.9,81.6,39c-0.6-1.2,0.3-2.6,1.6-2.6h0c0.7,0,1.4,0.4,1.7,1c1.8,3.7,5.5,6.3,9.9,6.3
		c4.4,0,8.1-2.6,9.9-6.3c0.3-0.6,0.9-1,1.6-1h0C107.7,36.4,108.6,37.8,108,39z M105.7,29.2c-2,0-3.6-1.6-3.6-3.6s1.6-3.6,3.6-3.6
		c2,0,3.6,1.6,3.6,3.6S107.7,29.2,105.7,29.2z"/>
	<path d="M123.9,32.8c0-8.7-3.4-17-9.6-23.2C108.1,3.4,99.9,0,91.2,0C81.2,0,72,4.4,65.6,12.2c-0.7-0.9-1.5-1.8-2.3-2.6
		C57.1,3.4,48.9,0,40.1,0C30.1,0,20.7,4.5,14.3,12.6c-4.6,5.8-7,13-7,20.4v5.3c0,2.7-1.9,5.3-5.6,5.5c-0.9,0.1-1.6,0.7-1.7,1.6
		c-0.1,2.5,2.5,7,6.1,10.7c2.5,2.6,5.4,4.6,8.6,6.2c-0.1,0.5-0.1,1-0.1,1.5c0,5,4.1,9.1,9.1,9.1c4.4,0,8.1-3.1,8.9-7.3l7.6,0
		c1,5.1,6.4,8.7,12.1,6.8c2.5-0.8,4.5-2.8,5.4-5.3c0.9-2.4,0.7-4.7,0-6.7c0.8-0.5,1.7-1.1,2.4-1.7c1.7,1.4,3.6,2.5,5.6,3.5
		c-0.1,0.5-0.1,1-0.1,1.5c0,5,4.1,9.1,9.1,9.1c4.4,0,8.1-3.1,8.9-7.3l7.6,0c1,5.1,6.4,8.7,12.1,6.8c2.5-0.8,4.5-2.8,5.4-5.3
		c0.9-2.4,0.7-4.7,0-6.7c2-1.3,3.9-2.8,5.6-4.5C120.5,49.8,123.9,41.5,123.9,32.8z M40.1,62l-7.4,0c-0.8-4.2-4.5-7.3-8.9-7.3
		c-3.2,0-6.1,1.6-7.7,4.2c0,0,0,0.1,0,0.1c-2.7-1.4-5.2-3.2-7.4-5.4c-2.6-2.6-4-5-4.6-6.5c1.7-0.4,3.2-1.3,4.4-2.5
		c1.6-1.7,2.4-3.9,2.4-6.2v-5.4c0-6.5,2.2-12.8,6.1-17.9C22.7,7.7,31.1,3.6,40.1,3.6c7.8,0,15.1,3,20.6,8.6s8.6,12.8,8.6,20.6
		c0,7.8-3,15.1-8.5,20.6C55.4,58.8,48,62,40.1,62z M91.2,62l-7.4,0c-0.8-4.2-4.5-7.3-8.9-7.3c-3.2,0-6.1,1.6-7.7,4.2
		c0,0,0,0.1,0,0.1c-1.5-0.7-2.8-1.6-4.2-2.6c0.1-0.1,0.2-0.2,0.3-0.3c6.2-6.2,9.6-14.4,9.6-23.2c0-6.3-1.8-12.3-5.1-17.5
		c0.1-0.1,0.2-0.2,0.2-0.3C73.7,7.7,82.1,3.6,91.2,3.6c7.8,0,15.1,3,20.6,8.6c5.5,5.5,8.6,12.8,8.6,20.6c0,7.8-3,15.1-8.5,20.6
		C106.4,58.8,99,62,91.2,62z"/>
	<circle cx="105.7" cy="25.5" r="3.6"/>
	<circle cx="83.8" cy="25.5" r="3.6"/>
	<path d="M106.4,36.4L106.4,36.4c-0.7,0-1.4,0.4-1.7,1c-1.8,3.7-5.5,6.3-9.9,6.3c-4.4,0-8.1-2.6-9.9-6.3c-0.3-0.6-1-1-1.7-1h0
		c-1.3,0-2.2,1.4-1.6,2.6c2.3,4.9,7.4,8.4,13.2,8.4s10.9-3.4,13.2-8.4C108.6,37.8,107.7,36.4,106.4,36.4z"/>
	<path class="st0" d="M60.7,53.4c5.5-5.5,8.5-12.8,8.5-20.6c0-7.8-3-15.1-8.6-20.6S47.9,3.6,40.1,3.6c-9,0-17.4,4.1-23.1,11.3
		c-4,5.1-6.1,11.4-6.1,17.9v5.4c0,2.3-0.8,4.6-2.4,6.2c-1.2,1.3-2.7,2.1-4.4,2.5c0.6,1.5,2,3.9,4.6,6.5c2.2,2.2,4.6,4.1,7.4,5.4
		c0,0,0-0.1,0-0.1c1.6-2.5,4.4-4.2,7.7-4.2c4.4,0,8.1,3.1,8.9,7.3l7.4,0C48,62,55.4,58.8,60.7,53.4z M54.7,21.9c2,0,3.6,1.6,3.6,3.6
		s-1.6,3.6-3.6,3.6S51,27.5,51,25.5S52.7,21.9,54.7,21.9z M29.2,25.5c0-2,1.6-3.6,3.6-3.6c2,0,3.6,1.6,3.6,3.6s-1.6,3.6-3.6,3.6
		C30.8,29.2,29.2,27.5,29.2,25.5z M30.6,39c-0.6-1.2,0.3-2.6,1.6-2.6h0c0.7,0,1.4,0.4,1.7,1c1.8,3.7,5.5,6.3,9.9,6.3
		c4.4,0,8.1-2.6,9.9-6.3c0.3-0.6,0.9-1,1.6-1h0c1.3,0,2.2,1.4,1.6,2.6c-2.3,4.9-7.4,8.4-13.2,8.4S32.9,43.9,30.6,39z"/>
	<circle cx="54.7" cy="25.5" r="3.6"/>
	<circle cx="32.8" cy="25.5" r="3.6"/>
	<path d="M57,39c0.6-1.2-0.3-2.6-1.6-2.6h0c-0.7,0-1.3,0.4-1.6,1c-1.8,3.7-5.5,6.3-9.9,6.3c-4.4,0-8.1-2.6-9.9-6.3
		c-0.3-0.6-1-1-1.7-1h0c-1.3,0-2.2,1.4-1.6,2.6c2.3,4.9,7.4,8.4,13.2,8.4S54.7,43.9,57,39z"/>
</g>
</svg>
