<?xml version="1.0" encoding="utf-8"?>
<!-- Generator: Adobe Illustrator 24.0.2, SVG Export Plug-In . SVG Version: 6.00 Build 0)  -->
<svg version="1.1" id="Layer_1" xmlns="http://www.w3.org/2000/svg" xmlns:xlink="http://www.w3.org/1999/xlink" x="0px" y="0px"
	 width="94px" height="108px" viewBox="0 0 127.4 146.3" style="enable-background:new 0 0 127.4 146.3;" xml:space="preserve"
	>
<style type="text/css">
	.st0{fill:#FFFFFF;}
	.st1{fill:#FCE354;}
	.st2{fill-rule:evenodd;clip-rule:evenodd;fill:#FD804B;}
	.st3{fill-rule:evenodd;clip-rule:evenodd;fill:#E5CEA8;}
	.st4{fill-rule:evenodd;clip-rule:evenodd;fill:#FFC400;}
</style>
<g>
	<g>
		<path class="st0" d="M63.7,142.8c-1,0-1.8-0.5-2.3-1.3l-8.9-16.1c-0.8-1.4-2.2-2.5-3.8-2.9c-26.9-6.9-45.5-31.1-45.3-59
			C3.4,47.4,9.8,32.3,21.2,21C32.6,9.8,47.7,3.6,63.7,3.6c0.3,0,0.6,0,0.8,0c32.8,0.4,59.5,27.5,59.5,60.4
			c0,27.6-18.6,51.6-45.3,58.5c-1.6,0.4-3,1.5-3.8,2.9L66,141.4C65.5,142.3,64.6,142.8,63.7,142.8z"/>
		<path d="M63.7,5.5c0.3,0,0.5,0,0.8,0c31.8,0.4,57.6,26.3,57.6,58.4c0,27.2-18.6,50.1-43.9,56.6c-2.1,0.5-3.9,1.9-5,3.8l-8.9,16.1
			c-0.2,0.3-0.5,0.4-0.6,0.4c-0.1,0-0.4,0-0.6-0.4l-8.9-16.1l0,0c-1.1-1.9-2.9-3.3-5-3.8C23.7,114,5.1,90.9,5.3,63.5
			C5.5,31.2,31.7,5.5,63.7,5.5 M63.7,1.6c-16.6,0-32.1,6.4-43.9,18C8.1,31.3,1.5,46.8,1.4,63.5c-0.2,28.7,19,53.7,46.8,60.9
			c1.1,0.3,2.1,1,2.6,2l8.9,16l0,0.1l0,0.1c0.8,1.4,2.3,2.3,4,2.3c1.6,0,3.1-0.8,4-2.3l0-0.1l0-0.1l8.9-16.1c0.6-1,1.5-1.7,2.6-2
			c27.6-7.1,46.8-31.9,46.8-60.4c0-16.5-6.4-32.1-18-43.8C96.4,8.4,81,1.8,64.6,1.6C64.3,1.6,64,1.6,63.7,1.6L63.7,1.6z"/>
	</g>
	<g>
		<circle class="st1" cx="63.6" cy="63.9" r="49.2"/>
		<g>
			<path class="st2" d="M40.4,70c0-2.4,0.3-4.8,1-7c-0.9-0.9-2.2-1.5-3.6-1.5c-2.9,0-5.2,2.3-5.2,5.2c0,1.3,0.5,2.5,1.3,3.4
				c0.5,0.5,0.6,1.2,0.4,1.9c-0.1,0.4-0.2,0.9-0.2,1.4c0,2.4,2,4.4,4.4,4.4c1,0,2-0.4,2.7-0.9C40.7,74.6,40.4,72.3,40.4,70z"/>
			<path class="st2" d="M94.7,66.7c0-2.9-2.3-5.2-5.2-5.2c-1.4,0-2.7,0.6-3.6,1.5c0.6,2.2,1,4.6,1,7c0,2.3-0.3,4.6-0.9,6.8
				c0.8,0.6,1.7,0.9,2.7,0.9c2.4,0,4.4-2,4.4-4.4c0-0.5-0.1-0.9-0.2-1.4c-0.2-0.6,0-1.4,0.4-1.9C94.2,69.2,94.7,68,94.7,66.7z"/>
			<path class="st3" d="M63.6,45.9c-6.4,0-12.3,2.7-16.5,7c-4.2,4.3-6.8,10.3-6.8,17c0,6.6,2.3,12.9,6.6,17.4
				C51,91.4,56.6,94,63.6,94s12.7-2.6,16.6-6.7c4.3-4.5,6.6-10.7,6.6-17.4c0-6.7-2.6-12.7-6.8-17C75.9,48.6,70.1,45.9,63.6,45.9z"/>
			<path d="M63.6,86.6c-2.7,0-5.3-1.5-7.1-4c-0.5-0.7-0.3-1.6,0.3-2.1c0.7-0.5,1.6-0.3,2.1,0.3c1.2,1.7,3,2.7,4.7,2.7
				c2,0,3.8-1.4,4.7-2.7c0.5-0.7,1.4-0.8,2.1-0.3c0.7,0.5,0.8,1.4,0.3,2.1C69,85.1,66.3,86.6,63.6,86.6z"/>
			<path class="st4" d="M71.4,37.2c-0.3-2.4-2-4.3-4.4-4.8c-1.1-0.2-2.4-0.4-3.4-0.4c-1,0-2.3,0.2-3.4,0.4c-2.4,0.5-4.1,2.4-4.4,4.8
				l-2.6,24.3h10.3H74L71.4,37.2z"/>
			<path class="st4" d="M72.1,43.3l-0.3-3l-0.3-3c0-0.3-0.1-0.6-0.2-0.9c-0.1-0.3-0.2-0.6-0.3-0.8s-0.3-0.5-0.4-0.8
				s-0.3-0.5-0.5-0.7c-0.2-0.2-0.4-0.4-0.6-0.6c-0.2-0.2-0.5-0.3-0.7-0.5c-0.3-0.1-0.5-0.3-0.8-0.4c-0.3-0.1-0.6-0.2-0.9-0.2
				c-0.1,0-0.3-0.1-0.4-0.1c-0.1,0-0.3-0.1-0.4-0.1s-0.3,0-0.4-0.1c-0.1,0-0.3,0-0.4-0.1S65,32,64.9,32s-0.3,0-0.4,0
				c-0.1,0-0.3,0-0.4,0c-0.1,0-0.3,0-0.4,0s-0.3,0-0.4,0s-0.3,0-0.4,0c-0.1,0-0.3,0-0.4,0s-0.3,0-0.4,0.1s-0.3,0-0.4,0.1
				c-0.1,0-0.3,0-0.4,0.1c-0.1,0-0.3,0.1-0.4,0.1c-0.1,0-0.3,0.1-0.4,0.1c-0.3,0.1-0.6,0.1-0.9,0.2s-0.5,0.2-0.8,0.4
				c-0.3,0.1-0.5,0.3-0.7,0.5c-0.2,0.2-0.4,0.4-0.6,0.6c-0.2,0.2-0.4,0.4-0.5,0.7c-0.2,0.2-0.3,0.5-0.4,0.8S56.1,36,56,36.3
				c-0.1,0.3-0.1,0.6-0.2,0.9l-0.3,3l-0.3,3"/>
			<polyline class="st4" points="54.3,52.4 53.9,55.4 53.6,58.5 53.3,61.5 54.6,61.5 55.9,61.5 57.2,61.5 58.5,61.5 59.8,61.5
				61.1,61.5 62.4,61.5 63.6,61.5 64.9,61.5 66.2,61.5 67.5,61.5 68.8,61.5 70.1,61.5 71.4,61.5 72.7,61.5 74,61.5 73.7,58.5
				73.4,55.4 73,52.4 			"/>
			<path class="st4" d="M92.8,58.7L92.3,57C92,56,91,55.4,90,55.7c-0.1,0-0.3,0.1-0.5,0.1l-0.7-5.9c-0.9-7.3-6.7-13.1-14-14.1
				c-3.8-0.5-7.9-0.9-11.2-0.9c-3.3,0-7.3,0.4-11.2,0.9c-7.3,1-13.1,6.8-14,14.1l-0.7,5.9c-0.2,0-0.3-0.1-0.5-0.1
				c-1-0.2-2,0.3-2.3,1.3l-0.5,1.8c-0.2,0.8,0,1.6,0.7,2.1l6,4.6c0.5,0.4,1,0.9,1.4,1.4h0c1.4,1.7,3.4,2.8,5.6,3
				c3.3,0.3,8.7,0.6,15.5,0.6s12.2-0.3,15.5-0.6c2.2-0.2,4.2-1.3,5.6-3c0.4-0.5,0.9-1,1.4-1.4l6-4.6C92.8,60.3,93.1,59.5,92.8,58.7z
				"/>
			<path d="M94.5,71.1c1.1-1.2,1.7-2.8,1.7-4.4c0-1.8-0.7-3.5-2-4.7c-0.2-0.2-0.4-0.4-0.6-0.5c0.7-0.9,0.9-2,0.6-3.1l-0.5-1.8
				c-0.4-1.3-1.6-2.2-2.9-2.4l-0.6-4.5c-1-8-7.3-14.3-15.3-15.4c-1.1-0.1-2.2-0.3-3.2-0.4c0,0,0,0,0,0c-0.2-0.3-0.4-0.6-0.7-0.9
				c-0.2-0.3-0.5-0.5-0.8-0.7c-0.3-0.2-0.6-0.4-0.9-0.6c-0.3-0.2-0.7-0.3-1-0.5c-0.3-0.1-0.7-0.2-1.1-0.3c-0.2,0-0.3-0.1-0.5-0.1
				c-0.2,0-0.3-0.1-0.5-0.1c-0.2,0-0.3-0.1-0.5-0.1c-0.2,0-0.3,0-0.5-0.1c-0.2,0-0.3,0-0.5-0.1c-0.2,0-0.3,0-0.5,0
				c-0.2,0-0.3,0-0.5,0c-0.3,0-0.6,0-0.9,0c-0.1,0-0.3,0-0.5,0c-0.2,0-0.3,0-0.5,0c-0.2,0-0.3,0-0.5,0.1c-0.2,0-0.3,0-0.5,0.1
				c-0.2,0-0.3,0-0.5,0.1c-0.2,0-0.3,0.1-0.5,0.1c-0.2,0-0.3,0.1-0.5,0.1c-0.4,0.1-0.7,0.2-1.1,0.3c-0.3,0.1-0.7,0.3-1,0.5
				c-0.3,0.2-0.6,0.4-0.9,0.6c-0.3,0.2-0.5,0.5-0.8,0.7c-0.2,0.3-0.5,0.6-0.7,0.9c0,0,0,0,0,0c-1,0.1-2.1,0.2-3.2,0.4
				c-8,1.1-14.3,7.4-15.3,15.4l-0.6,4.5c-1.3,0.1-2.5,1-2.9,2.4l-0.5,1.8c-0.3,1.1-0.1,2.3,0.6,3.1c-0.2,0.2-0.4,0.3-0.6,0.5
				c-1.3,1.3-2,2.9-2,4.7c0,1.6,0.6,3.2,1.7,4.4c0.1,0.1,0.2,0.3,0.1,0.4c-0.2,0.6-0.3,1.2-0.3,1.8c0,1.6,0.6,3.1,1.7,4.2
				c1.1,1.1,2.6,1.7,4.2,1.7c0,0,0,0,0,0c0.6,0,1.2-0.1,1.8-0.3c1.2,3.6,3.1,6.8,5.6,9.4c4.5,4.7,10.6,7.1,17.7,7.1
				s13.2-2.5,17.7-7.1c2.5-2.6,4.4-5.8,5.6-9.4c0.6,0.2,1.2,0.3,1.8,0.3c0,0,0,0,0,0c1.6,0,3.1-0.6,4.2-1.7c1.1-1.1,1.7-2.6,1.7-4.2
				c0-0.6-0.1-1.2-0.3-1.8C94.3,71.4,94.4,71.2,94.5,71.1z M40,50.1c0.8-6.7,6.1-11.9,12.7-12.8c0.6-0.1,1.2-0.1,1.7-0.2l-0.6,6.1
				c-0.1,0.8,0.5,1.5,1.3,1.6c0.8,0.1,1.5-0.5,1.6-1.3l0.6-6.1c0-0.2,0.1-0.4,0.1-0.6c0.1-0.2,0.1-0.4,0.2-0.6
				c0.1-0.2,0.2-0.4,0.3-0.6c0.1-0.2,0.2-0.3,0.4-0.5c0.1-0.2,0.3-0.3,0.5-0.4c0.2-0.1,0.3-0.3,0.5-0.4c0.2-0.1,0.4-0.2,0.6-0.3
				c0.2-0.1,0.4-0.1,0.6-0.2c0.1,0,0.3-0.1,0.4-0.1c0.1,0,0.3-0.1,0.4-0.1c0.1,0,0.3,0,0.4-0.1c0.1,0,0.3,0,0.4-0.1
				c0.1,0,0.3,0,0.4,0c0.1,0,0.3,0,0.4,0c0.1,0,0.2,0,0.4,0c0.2,0,0.4,0,0.7,0c0.1,0,0.2,0,0.4,0c0.1,0,0.3,0,0.4,0
				c0.1,0,0.3,0,0.4,0c0.1,0,0.3,0,0.4,0.1c0.1,0,0.3,0,0.4,0.1c0.1,0,0.3,0,0.4,0.1c0.1,0,0.3,0.1,0.4,0.1c0.2,0,0.4,0.1,0.6,0.2
				c0.2,0.1,0.4,0.2,0.6,0.3c0.2,0.1,0.4,0.2,0.5,0.4c0.2,0.1,0.3,0.3,0.5,0.4c0.1,0.2,0.3,0.3,0.4,0.5c0.1,0.2,0.2,0.4,0.3,0.6
				c0.1,0.2,0.2,0.4,0.2,0.6c0.1,0.2,0.1,0.4,0.1,0.6l0.6,6.1c0.1,0.8,0.7,1.3,1.5,1.3c0.1,0,0.1,0,0.2,0c0.8-0.1,1.4-0.8,1.3-1.6
				L72.9,37c0.6,0.1,1.1,0.1,1.7,0.2c6.7,0.9,11.9,6.1,12.7,12.8l0.6,4.6c-2.8,0.6-7.3,1.4-12.9,1.9l-0.5-4.3
				c-0.1-0.8-0.8-1.4-1.6-1.3c-0.8,0.1-1.4,0.8-1.3,1.6l0.4,4.2c-2.6,0.2-5.4,0.3-8.4,0.3c-3,0-5.8-0.1-8.4-0.3l0.4-4.2
				c0.1-0.8-0.5-1.5-1.3-1.6c-0.8-0.1-1.5,0.5-1.6,1.3l-0.5,4.3c-5.7-0.5-10.1-1.3-12.9-1.9L40,50.1z M35.9,59.2l0.5-1.8
				c0.1-0.2,0.2-0.3,0.4-0.3c0,0,0.1,0,0.1,0C40.6,58,50.6,60,63.6,60c13,0,23-2,26.7-2.9c0.2-0.1,0.4,0.1,0.5,0.3l0.5,1.8
				c0.1,0.2,0,0.4-0.2,0.5l-6,4.6c-0.6,0.5-1.2,1-1.7,1.7c-1.1,1.4-2.7,2.3-4.5,2.4c-3.3,0.3-8.7,0.6-15.4,0.6
				c-6.7,0-12-0.3-15.4-0.6c-1.8-0.1-3.4-1-4.5-2.4c-0.5-0.6-1.1-1.2-1.7-1.7l-6-4.6C35.9,59.5,35.8,59.4,35.9,59.2z M38.5,76.3
				C38.5,76.3,38.5,76.3,38.5,76.3c-0.8,0-1.5-0.3-2.1-0.9c-0.6-0.6-0.9-1.3-0.9-2.1c0-0.3,0-0.6,0.1-0.9c0.4-1.1,0.1-2.4-0.7-3.3
				c-0.6-0.7-0.9-1.5-0.9-2.4c0-1,0.4-1.9,1.1-2.6c0.3-0.3,0.6-0.5,0.9-0.7l3.2,2.4c-0.2,1.4-0.3,2.8-0.3,4.2c0,2.1,0.2,4.1,0.6,6.1
				C39.2,76.2,38.9,76.3,38.5,76.3z M79.2,86.3c-3.9,4.1-9.3,6.2-15.6,6.2S52,90.4,48.1,86.3c-4-4.1-6.2-9.9-6.2-16.3
				c0-0.6,0-1.1,0.1-1.7c1.6,1.7,3.8,2.8,6.1,3c3.4,0.3,8.8,0.6,15.6,0.6c6.8,0,12.2-0.3,15.6-0.6c2.3-0.2,4.5-1.3,6.1-3
				c0,0.6,0.1,1.1,0.1,1.7C85.4,76.4,83.2,82.2,79.2,86.3z M92.3,69.1c-0.8,0.9-1.1,2.2-0.7,3.3c0.1,0.3,0.1,0.6,0.1,0.9
				c0,0.8-0.3,1.5-0.9,2.1c-0.6,0.6-1.3,0.9-2.1,0.9c0,0,0,0,0,0c-0.4,0-0.7-0.1-1-0.2c0.4-2,0.6-4,0.6-6.1c0-1.4-0.1-2.8-0.3-4.2
				l3.2-2.4c0.3,0.2,0.6,0.4,0.9,0.7c0.7,0.7,1.1,1.6,1.1,2.6C93.2,67.6,92.9,68.4,92.3,69.1z"/>
		</g>
	</g>
</g>
</svg>
