<svg xmlns="http://www.w3.org/2000/svg" width="24" height="24"><path fill="#000" d="M12 2.24c3.18 0 3.56.01 4.81.07 1.16.05 1.79.25 2.21.41.52.19.98.5 1.37.89.4.38.7.85.89 1.37.16.42.36 1.05.41 2.21.06 1.26.07 1.63.07 4.81s-.01 3.56-.07 4.81c-.05 1.16-.25 1.79-.41 2.21a3.932 3.932 0 0 1-2.26 2.26c-.42.16-1.05.36-2.21.41-1.26.06-1.63.07-4.81.07s-3.56-.01-4.81-.07c-1.16-.05-1.79-.25-2.21-.41-.52-.19-.98-.5-1.37-.89-.4-.38-.7-.85-.89-1.37-.16-.42-.36-1.05-.41-2.21-.06-1.25-.07-1.63-.07-4.81s.01-3.56.07-4.81c.05-1.16.25-1.79.41-2.21.19-.52.5-.98.89-1.37.38-.4.85-.7 1.37-.89.42-.16 1.05-.36 2.21-.41 1.25-.06 1.63-.07 4.81-.07M12 .1C8.77.1 8.36.11 7.09.17 5.82.22 4.96.43 4.2.72c-.79.3-1.51.77-2.11 1.37-.6.6-1.07 1.32-1.37 2.11-.29.76-.5 1.62-.55 2.89C.11 8.36.09 8.77.09 12s.01 3.64.07 4.91c.06 1.27.26 2.13.55 2.89.3.79.77 1.51 1.37 2.11.59.61 1.31 1.07 2.11 1.37.76.29 1.62.5 2.89.55 1.28.06 1.69.07 4.92.07s3.64-.01 4.91-.07c1.27-.06 2.13-.26 2.89-.55 1.6-.62 2.86-1.88 3.48-3.48.29-.76.5-1.62.55-2.89.06-1.27.07-1.68.07-4.91s-.01-3.64-.07-4.91c-.06-1.27-.26-2.13-.55-2.89-.3-.79-.77-1.51-1.37-2.11A5.706 5.706 0 0 0 19.8.72c-.76-.29-1.62-.5-2.89-.55C15.64.11 15.23.1 12 .1z"/><path fill="#000" d="M12 5.89A6.11 6.11 0 1 0 18.11 12c0-3.38-2.73-6.11-6.11-6.11zm0 10.08c-2.19 0-3.97-1.78-3.97-3.97 0-2.19 1.78-3.97 3.97-3.97 2.19 0 3.97 1.78 3.97 3.97 0 2.19-1.78 3.97-3.97 3.97z"/><circle fill="#000" cx="18.35" cy="5.65" r="1.43"/></svg>
