<svg xmlns="http://www.w3.org/2000/svg" width="24" height="20"><path fill="#000" d="M7.57 19.712c9.02 0 13.95-7.47 13.95-13.95 0-.21 0-.42-.01-.63.96-.69 1.79-1.56 2.45-2.54-.88.39-1.82.65-2.82.77A4.974 4.974 0 0 0 23.3.652c-.95.56-2 .97-3.11 1.19a4.902 4.902 0 0 0-8.35 4.47 13.94 13.94 0 0 1-10.1-5.12 4.914 4.914 0 0 0 1.52 6.54c-.8-.02-1.56-.25-2.22-.61v.06c0 2.37 1.69 4.36 3.93 4.81-.41.11-.85.17-1.29.17-.32 0-.62-.03-.92-.09a4.88 4.88 0 0 0 4.58 3.4 9.809 9.809 0 0 1-6.09 2.1c-.4 0-.79-.02-1.17-.07 2.14 1.4 4.72 2.21 7.49 2.21"/></svg>
