<svg version="1.1" id="Layer_1" xmlns="http://www.w3.org/2000/svg" x="0" y="0" width="86" height="22" xml:space="preserve"><style>.st0{fill-rule:evenodd;clip-rule:evenodd}</style><path class="st0" d="M1.6 2.3c-.6 0-.9.4-.7 1L6 19c.1.4.5.8.9.8H11c.5 0 .8-.3.9-.8l2.8-10.4L17.6 19c.1.4.5.8 1 .8h4c.5 0 .8-.3 1-.8l5.1-15.6c.2-.6-.1-1-.7-1h-3.1c-.5 0-.8.4-.9.7l-3.2 11.1L17.7 3c-.1-.5-.5-.7-.9-.7H13c-.5 0-.8.2-.9.7L9 14.1 5.9 3c-.1-.4-.3-.7-.9-.7H1.6zM38 1.8c-4.6 0-8.8 3.6-8.8 9.2s4.2 9.3 8.8 9.3c2.5 0 4.5-1.1 5.4-2.6V19c0 .4.3.7.7.7h3.2c.4 0 .7-.3.7-.7V3c0-.4-.3-.8-.7-.8h-3.2c-.4 0-.7.4-.7.8v1.4c-.9-1.5-2.9-2.6-5.4-2.6zm.7 4.3c2.7 0 4.7 2.2 4.7 4.9s-2 4.9-4.7 4.9S34 13.7 34 11c-.1-2.7 2-4.9 4.7-4.9zM51.7 2.3c-.4 0-.7.3-.7.7v2.5c0 .4.3.7.8.8h7.8L51 15.9c-.3.3-.4.5-.4.9V19c0 .4.3.7.8.8h14.1c.4 0 .7-.3.7-.7v-2.5c0-.4-.3-.8-.7-.8H57l8.5-9.6c.3-.2.4-.5.4-.9V3c0-.4-.3-.7-.8-.8H51.7zM76.2 1.8c-5.4 0-9.3 4.1-9.3 9.3 0 5.2 3.8 9.1 9.3 9.1 3.9 0 6.2-1.5 7.6-3.4.2-.3.3-.8-.1-1.1l-2.3-1.6c-.1-.1-.3-.1-.4-.1-.2 0-.4.1-.6.3-1.1 1.2-2.3 1.8-4.1 1.8-2.4 0-4.3-1.6-4.6-4.1h12.5c.7 0 .8-.4.8-.8v-.9c.2-4.4-3.4-8.5-8.8-8.5zm0 3.7c2 0 3.9 1.3 4.3 3.7h-8.6c.5-2.2 2.2-3.7 4.3-3.7z"/></svg>