<?xml version="1.0" encoding="utf-8"?>
<!-- Generator: Adobe Illustrator 24.0.2, SVG Export Plug-In . SVG Version: 6.00 Build 0)  -->
<svg version="1.1" id="Layer_1" xmlns="http://www.w3.org/2000/svg" xmlns:xlink="http://www.w3.org/1999/xlink" x="0px" y="0px"
	 width="66px" height="60px" viewBox="0 0 82.7 75.2" style="enable-background:new 0 0 82.7 75.2;" xml:space="preserve">
<style type="text/css">
	.st0{fill:#33CCFF;}
	.st1{fill:#FFFFFF;}
	.st2{fill:#050505;}
</style>
<g>
	<path class="st0" d="M9.4,33.9c0-17.7,14.3-32,32-32c17.6,0,32,14.4,32,32c0,17.7-14.3,32-32,32c0,0-11.3,0-11.3,0
		C11.3,65.8,1.8,50.7,1.9,47c4.5,0,7.5-3.7,7.5-7.5V33.9z"/>
	<path d="M75.2,33.9c0-9-3.5-17.5-9.9-23.9C58.9,3.5,50.4,0,41.4,0c-9,0-17.5,3.5-23.9,9.9c-6.4,6.4-9.9,14.9-9.9,23.9v5.6
		c0,2.7-2.1,5.6-5.7,5.6c-1,0-1.9,0.8-1.9,1.9c0,2.6,2.6,7.1,6.3,10.9c2.6,2.6,5.6,4.8,8.9,6.4c-0.1,0.5-0.1,1-0.1,1.6
		c0,5.2,4.2,9.4,9.4,9.4c4.6,0,8.3-3.2,9.2-7.5l7.7,0c0.1,0,0.1,0,0.2,0c0.9,4.3,4.7,7.5,9.2,7.5c5.2,0,9.4-4.2,9.4-9.4
		c0-1.2-0.2-2.3-0.6-3.4c2.1-1.3,4-2.9,5.8-4.6C71.7,51.4,75.2,42.9,75.2,33.9z M41.4,63.9c0,0-4.4,0-7.7,0
		c-0.9-4.3-4.7-7.5-9.2-7.5c-3.3,0-6.2,1.7-7.9,4.3c-2.8-1.4-5.4-3.3-7.6-5.5c-2.6-2.7-4.1-5.1-4.7-6.6c1.7-0.4,3.3-1.3,4.5-2.6
		c1.6-1.7,2.6-4.1,2.6-6.5v-5.6c0-8,3.1-15.6,8.8-21.3c5.7-5.7,13.2-8.8,21.3-8.8c8,0,15.6,3.1,21.3,8.8c5.7,5.7,8.8,13.2,8.8,21.3
		c0,8-3.1,15.6-8.8,21.3C57,60.8,49.4,63.9,41.4,63.9z"/>
	<g>
		<circle class="st1" cx="24.4" cy="24.5" r="15"/>
	</g>
	<g>
		<ellipse transform="matrix(0.1602 -0.9871 0.9871 0.1602 31.1629 85.5287)" class="st1" cx="65.8" cy="24.5" rx="15" ry="15"/>
	</g>
	<path class="st2" d="M65.8,7.5C57.1,7.5,50,14.1,49,22.6h-7.8c-0.9-8.5-8.1-15.1-16.8-15.1c-9.3,0-16.9,7.6-16.9,16.9
		c0,9.3,7.6,16.9,16.9,16.9c8.7,0,15.9-6.6,16.8-15h7.8c1,8.4,8.1,15,16.8,15c9.3,0,16.9-7.6,16.9-16.9C82.7,15.1,75.2,7.5,65.8,7.5
		z M24.4,37.6c-7.3,0-13.2-5.9-13.2-13.2c0-7.3,5.9-13.2,13.2-13.2s13.2,5.9,13.2,13.2C37.6,31.7,31.7,37.6,24.4,37.6z M65.8,37.6
		c-7.2,0-13-5.8-13.1-12.9c0-0.1,0-0.1,0-0.2c0-0.1,0-0.1,0-0.2c0.1-7.2,5.9-13,13.1-13c7.2,0,13.1,5.9,13.1,13.1
		C79,31.7,73.1,37.6,65.8,37.6z"/>
	<g>
		<g>
			<circle cx="60.2" cy="26.3" r="3.8"/>
		</g>
	</g>
	<g>
		<g>
			<circle cx="30.1" cy="26.3" r="3.8"/>
		</g>
	</g>
	<g>
		<g>
			<path d="M50.8,48.8H39.5c-1,0-1.9-0.8-1.9-1.9s0.8-1.9,1.9-1.9h11.3c1,0,1.9,0.8,1.9,1.9S51.9,48.8,50.8,48.8z"/>
		</g>
	</g>
</g>
</svg>
