<svg version="1.1" id="Layer_1" xmlns="http://www.w3.org/2000/svg" x="0" y="0" width="211.8" height="34.1" xml:space="preserve"><style>.st0{fill-rule:evenodd;clip-rule:evenodd}</style><path class="st0" d="M.8 8.9c-.6 0-.9.4-.7 1l5.1 15.6c.1.4.5.8.9.8h4.1c.5 0 .8-.3.9-.8L13.9 15l2.8 10.5c.1.4.5.8 1 .8h4c.5 0 .8-.3 1-.8L27.8 10c.2-.6-.1-1-.7-1H24c-.5 0-.8.4-.9.7l-3.2 11.1-3-11.1c-.1-.5-.5-.7-.9-.7h-3.8c-.5 0-.8.2-.9.7l-3 11.1L5.1 9.6c-.1-.4-.4-.7-.9-.7H.8zM37.2 8.4c-4.6 0-8.8 3.6-8.8 9.2s4.2 9.3 8.8 9.3c2.5 0 4.5-1.1 5.4-2.6v1.4c0 .4.3.7.7.7h3.2c.4 0 .7-.3.7-.7v-16c0-.4-.3-.8-.7-.8h-3.2c-.4 0-.7.4-.7.8V11c-.9-1.5-2.9-2.6-5.4-2.6zm.7 4.3c2.7 0 4.7 2.2 4.7 4.9s-2 4.9-4.7 4.9-4.7-2.2-4.7-4.9c-.1-2.7 2-4.9 4.7-4.9zM50.9 8.9c-.4 0-.7.3-.8.8v2.5c0 .4.3.7.8.8h7.8l-8.6 9.6c-.3.3-.4.5-.4.9v2.1c0 .4.3.7.8.8h14.1c.4 0 .7-.3.7-.7v-2.5c0-.4-.3-.8-.7-.8h-8.5l8.5-9.6c.3-.2.4-.5.4-.9V9.7c0-.4-.4-.7-.8-.8H50.9zM75.5 8.4c-5.4 0-9.3 4.1-9.3 9.3 0 5.2 3.8 9.2 9.3 9.2 3.9 0 6.2-1.5 7.6-3.4.2-.3.3-.8-.1-1.1l-2.3-1.6c-.1-.1-.3-.1-.4-.1-.2 0-.4.1-.6.3-1.1 1.2-2.3 1.8-4.1 1.8-2.4 0-4.3-1.6-4.6-4.1h12.5c.7 0 .8-.4.8-.8V17c.1-4.5-3.4-8.6-8.8-8.6zm0 3.8c2 0 3.9 1.3 4.3 3.7h-8.6c.4-2.3 2.2-3.7 4.3-3.7zM96.9 8.4c-5.1 0-9.1 3.9-9.1 9.2 0 5.3 4 9.2 9.1 9.2 3.5 0 6.4-1.7 7.8-4.5.2-.5 0-.8-.3-.9l-1-.5c-.1-.1-.3-.1-.4-.1-.2 0-.4.1-.6.4-1.2 2.1-3.1 3.2-5.6 3.2-3.8 0-6.4-3-6.4-6.8s2.7-6.8 6.4-6.8c2.5 0 4.4 1.2 5.6 3.2.2.2.3.4.6.4.1 0 .3 0 .4-.1l1-.5c.3-.1.5-.5.3-.9-1.3-2.8-4.3-4.5-7.8-4.5zM116.2 8.4c-4.9 0-8.9 3.8-8.9 9.2 0 5.4 4 9.2 8.9 9.2 3 0 5.5-1.6 6.6-3.8v2.7c0 .3.3.6.6.6h1.4c.3 0 .6-.3.6-.6V9.5c0-.3-.3-.6-.6-.6h-1.4c-.3 0-.6.3-.6.6v2.7c-1.1-2.2-3.6-3.8-6.6-3.8zm.2 2.4c3.7 0 6.4 3 6.4 6.8s-2.7 6.8-6.4 6.8c-3.8 0-6.4-3-6.4-6.8s2.6-6.8 6.4-6.8zM137.8 8.8c-2.5 0-4.3 1.6-4.9 3.3V9.5c0-.3-.3-.6-.6-.6H131c-.4 0-.6.3-.6.6v16.2c0 .3.3.6.6.6h1.4c.3 0 .6-.3.6-.6v-8.3c0-4.4 2.1-6 4.8-6h.6c.3 0 .6-.2.6-.6V9.5c0-.4-.3-.6-.6-.6h-.6zM151.2 8.4c-3 0-5.6 1.6-6.7 3.8V9.5c0-.4-.3-.6-.6-.6h-1.3c-.4 0-.6.3-.6.6v23.9c0 .3.3.6.6.6h1.3c.4 0 .6-.3.6-.6V23.1c1.1 2.2 3.7 3.7 6.6 3.7 4.9 0 8.8-3.8 8.8-9.2.1-5.4-3.9-9.2-8.7-9.2zm-.3 2.4c3.7 0 6.4 3 6.4 6.8s-2.7 6.8-6.4 6.8c-3.8 0-6.4-3-6.4-6.8s2.6-6.8 6.4-6.8zM171.7 8.4c-5 0-9.1 3.9-9.1 9.2 0 5.3 4.1 9.2 9.1 9.2s9.1-3.9 9.1-9.2c0-5.3-4-9.2-9.1-9.2zm0 2.4c3.8 0 6.4 3 6.4 6.8s-2.7 6.8-6.4 6.8c-3.8 0-6.4-3-6.4-6.8s2.7-6.8 6.4-6.8zM192.6 8.4c-5 0-9.1 3.9-9.1 9.2 0 5.3 4.1 9.2 9.1 9.2s9.1-3.9 9.1-9.2c-.1-5.3-4.1-9.2-9.1-9.2zm0 2.4c3.8 0 6.4 3 6.4 6.8s-2.7 6.8-6.4 6.8c-3.8 0-6.4-3-6.4-6.8-.1-3.8 2.6-6.8 6.4-6.8zM206.1 0c-.4 0-.6.3-.6.6v21.5c0 3 1.7 4.2 4.2 4.2h1.4c.3 0 .7-.2.7-.7v-.9c0-.3-.3-.6-.6-.6h-.9c-1.6 0-2.3-.8-2.3-2.3V.6c0-.3-.3-.6-.6-.6h-1.3z"/></svg>